<?xml version="1.0" encoding="utf-8"?>
<!-- Generator: Adobe Illustrator 25.2.1, SVG Export Plug-In . SVG Version: 6.00 Build 0)  -->
<svg version="1.1" id="Слой_1" xmlns="http://www.w3.org/2000/svg" xmlns:xlink="http://www.w3.org/1999/xlink" x="0px" y="0px"
	 viewBox="0 0 718 718" style="enable-background:new 0 0 718 718;" xml:space="preserve">
<style type="text/css">
	.st0{fill:#1E1E82;}
	.st1{clip-path:url(#SVGID_2_);fill:url(#SVGID_3_);}
	.st2{fill-rule:evenodd;clip-rule:evenodd;fill:#FFEB00;}
	.st3{fill-rule:evenodd;clip-rule:evenodd;fill:#FFFFFF;}
	.st4{clip-path:url(#SVGID_5_);fill:url(#SVGID_6_);}
	.st5{clip-path:url(#SVGID_8_);fill:url(#SVGID_9_);}
	.st6{fill:#FFFFFF;}
</style>
<path class="st0" d="M689.25,718H28.75C12.87,718,0,705.13,0,689.25V28.75C0,12.87,12.87,0,28.75,0h660.51
	C705.13,0,718,12.87,718,28.75v660.51C718,705.13,705.13,718,689.25,718z"/>
<g>
	<g>
		<defs>
			<polygon id="SVGID_1_" points="286.37,294.94 354.15,145.36 429.2,272.37 634.97,261.08 475.19,376.79 530.88,512.27 366.26,453 
				194.38,565.89 233.11,407.84 83.02,325.99 			"/>
		</defs>
		<clipPath id="SVGID_2_">
			<use xlink:href="#SVGID_1_"  style="overflow:visible;"/>
		</clipPath>
		<linearGradient id="SVGID_3_" gradientUnits="userSpaceOnUse" x1="95.429" y1="229.6853" x2="622.5585" y2="481.5619">
			<stop  offset="0" style="stop-color:#D4A700"/>
			<stop  offset="0.01" style="stop-color:#D4A700"/>
			<stop  offset="0.33" style="stop-color:#FFEB00"/>
			<stop  offset="0.49" style="stop-color:#BA8E00"/>
			<stop  offset="0.64" style="stop-color:#FFEB00"/>
			<stop  offset="0.81" style="stop-color:#BC9000"/>
			<stop  offset="1" style="stop-color:#FFEB00"/>
		</linearGradient>
		<rect x="83.02" y="145.36" class="st1" width="551.96" height="420.52"/>
	</g>
	<polygon class="st2" points="284.14,293.08 354,138.92 431.35,269.82 643.43,258.18 478.76,377.44 536.14,517.07 366.48,455.98 
		189.33,572.33 229.25,409.44 74.56,325.08 	"/>
	<path class="st3" d="M67.56,108.07c1.77,0,3.54,0,5.3,0h576.46c12.72,0.17,21.05,4.11,21.89,18.4l0.04,4.48
		c-0.01,150.26-0.03,300.52-0.04,450.79c0,17.44-9.94,20.48-25.37,20.48c-193.28,0.03-386.57,0.06-579.85,0.08
		c-3.96,0-9.02-1.18-12.13-3.62c-0.79-0.62-1.54-1.17-2.13-1.79c-2.97-3.13-4.24-5.77-4.81-10.27c-0.19-1.46-0.17-3.13-0.17-5.05
		c0-2.76,0-5.53,0-8.29c0-147.55,0-295.11,0-442.66C46.97,116.12,51.35,108.07,67.56,108.07 M41.08,132.59c0-1.36,0.09-2.72,0-4.08
		c-0.55-8.05,1.9-14.4,6.37-18.97c5.06-5.17,11.95-7.74,20.08-7.14c2.24-0.03,4.48-0.05,6.72-0.08h570.23
		c1.79,0.01,3.59,0.03,5.38,0.04c0.28,0,0.55,0.02,0.83,0.01c2.92-0.1,5.7,0.1,8.34,0.62c4.43,0.87,9.04,3.77,11.89,6.93
		c2.65,2.94,4.69,6.52,5.49,11.13c0.34,1.96,0.4,3.87,0.49,5.85v457.17c-0.05,0.87-0.1,1.74-0.16,2.61
		c-0.54,9.08-6.48,15.95-14,19.35c-2.91,1.32-6.05,1.83-9.15,1.8c-0.41,0-0.83,0.03-1.24,0.04c-1.05,0-2.1,0-3.15,0H67.6
		c-1.71-0.03-3.07,0-4.49-0.06c-8.19-0.4-13.74-4.25-17.61-9.53c-2.83-3.86-4.41-8.59-4.36-14.04c0-0.33-0.03-0.67-0.05-1.01
		c-0.05-1.6-0.03-3.2-0.03-4.83C41.07,429.79,41.07,281.19,41.08,132.59z"/>
	<g>
		<defs>
			<polygon id="SVGID_4_" points="287.11,296.73 354.55,148.15 428.72,274.54 628.16,263.6 471.85,376.81 527.57,508.73 
				365.27,451.36 197.11,561.81 235,407.19 88.16,327.11 			"/>
		</defs>
		<clipPath id="SVGID_5_">
			<use xlink:href="#SVGID_4_"  style="overflow:visible;"/>
		</clipPath>
		<linearGradient id="SVGID_6_" gradientUnits="userSpaceOnUse" x1="104.9837" y1="475.2889" x2="610.4573" y2="235.0932">
			<stop  offset="0" style="stop-color:#C6A52C"/>
			<stop  offset="0.01" style="stop-color:#D3A80D"/>
			<stop  offset="0.25" style="stop-color:#D5BC0C"/>
			<stop  offset="0.38" style="stop-color:#F0E431"/>
			<stop  offset="0.41" style="stop-color:#F0E431"/>
			<stop  offset="0.55" style="stop-color:#F2EB81"/>
			<stop  offset="0.59" style="stop-color:#F2E76A"/>
			<stop  offset="0.67" style="stop-color:#F0E431"/>
			<stop  offset="1" style="stop-color:#F3EA79"/>
		</linearGradient>
		<rect x="88.16" y="148.15" class="st4" width="540" height="413.66"/>
	</g>
	<g>
		<defs>
			<path id="SVGID_7_" d="M308.99,391.78c-3.17-2.58-6-5.51-8.49-8.77c-5.12-6.7-8.48-14.12-10.09-22.23
				c-1.59-7.91-1.44-15.88,0.31-23.88c2.25-10.69,7.09-20.13,14.47-28.44c7.19-8.11,15.91-14.27,26.19-18.58
				c10.16-4.26,20.97-6.32,32.57-6.15c9.84,0.22,18.91,2.64,27.32,7.24h0l0.01,0.01c0.96,0.47,1.92,0.97,2.86,1.5
				c0.04,0.03,0.09,0.07,0.13,0.1c-2.37,4.03-5.7,9.66-8.13,13.81c-6.54-4.66-13.62-8.39-22.9-8.61
				c-7.29-0.22-14.53,1.19-21.73,4.22c-7.3,3.04-13.63,7.59-19.05,13.72c-5.51,6.22-9.21,13.9-11.04,23.13
				c-1.77,8.7-1.39,16.82,1.25,24.3c5.04,14.29,14.12,17.32,27.62,21.2c-3.12,5.23-7.91,13.38-11.1,18.77
				c-2.37-0.74-4.62-1.61-6.78-2.6C317.36,398.18,312.9,395.26,308.99,391.78 M332.01,446.98l-0.01,0.02l-4.37,0.03h-0.01l-0.1,0
				c-6.38,0.07-13.37,0.18-18.96,0.21c0.85-1.46,1.7-2.91,2.55-4.34c14.28-24.48,27.04-46.37,39.73-68.11
				c12.61-21.61,24.48-41.97,35.65-61.17l0.46,0.89l0,0c9.79,18.78,21.8,40.09,32.77,61.19c11.88,22.84,22.85,43.97,36.49,70.07
				l-0.96,0l-0.14,0l-0.23,0l-0.14,0l-0.23,0l-0.14,0l-0.96,0l-0.14,0l-0.23,0l-0.14,0l-0.23,0l-0.14,0l-0.59,0l-0.14,0l-0.23,0
				l-0.14,0l-0.23,0l-0.14,0l-0.96,0l-0.14,0l-0.23,0l-0.14,0l-0.23,0l-0.14,0l-1.33,0.01l-0.14,0l-0.23,0l-0.14,0l-0.23,0l-0.14,0
				l-0.96,0l-0.14,0l-0.23,0l-0.14,0l-0.23,0l-0.14,0l-0.96,0l-0.14,0l-0.23,0l-0.14,0l-0.23,0l-0.14,0l-1.33,0.01l-0.13,0l-0.23,0
				l-0.13,0l-0.23,0l-0.13,0l-0.96,0l-0.13,0l-0.23,0l-0.13,0l-0.23,0l-0.13,0l-1.32,0.01l-0.13,0l-0.23,0l-0.13,0l-0.23,0l-0.13,0
				l-1.33,0.01l-0.13,0l-0.23,0l-0.13,0l-0.23,0l-0.13,0l-1.33,0.01l-0.13,0l-0.23,0l-0.13,0l-0.23,0l-0.13,0v0l-2.31-0.26
				c-6.57-13.27-12.55-25.63-18.6-37.92c-17.58,0.13-32.76,0.22-50.34,0.34c0.72-1.41,0.78-1.63,1.52-3.03l0.03-0.06l0.01-0.02
				c2.67-5.08,5.38-9.95,7.97-14.96c11.27-0.09,22.55-0.19,33.84-0.28c-4-8.28-7.92-16.36-11.74-24.3l-6.72-12.7
				c-2.89,4.94-5.84,9.94-8.8,15.01c-3.83,7-7.72,14.15-11.68,21.4c-0.06,0.08-0.11,0.18-0.15,0.27c-0.39,0.73-0.77,1.42-1.14,2.13
				c-3.74,6.9-7.54,13.89-11.41,21.04c-6.57,12.04-11.69,21.57-18.69,34.38L332.01,446.98z"/>
		</defs>
		<clipPath id="SVGID_8_">
			<use xlink:href="#SVGID_7_"  style="overflow:visible;"/>
		</clipPath>
		<linearGradient id="SVGID_9_" gradientUnits="userSpaceOnUse" x1="428.6511" y1="357.4376" x2="316.8441" y2="373.2964">
			<stop  offset="0" style="stop-color:#5E4F00"/>
			<stop  offset="1" style="stop-color:#DBE080"/>
		</linearGradient>
		<rect x="288.83" y="283.56" class="st5" width="167.4" height="163.67"/>
	</g>
	<path class="st0" d="M352.05,408.42c-6.24,11.53-12.69,23.43-19.34,35.7c-7.39,0.1-15.16,0.12-22.55,0.21
		c14.51-25.1,28.47-48.53,41.21-70.56c11.97-20.7,22.94-39.69,33.56-58.08c9.37,18.06,19.63,36.71,30.22,57.09
		c11.28,21.71,23.34,44.94,36.29,69.75c-7.44,0.1-14.83,0.2-22.21,0.29c-6.53-13.22-12.82-26.01-18.89-38.35
		c-8.07,0.12-16.16,0.23-24.22,0.35c-8.06,0.12-15.11,0.23-23.16,0.35c2.93-5.77,5.8-11.43,8.67-17.03
		c10.7-0.16,20.41-0.33,31.13-0.49c-3.8-7.87-7.52-15.56-11.15-23.1c-2.55-4.84-5.07-9.59-7.55-14.29c-2.9,5-5.86,10.06-8.83,15.21
		c-3.64,6.71-7.33,13.55-11.1,20.5c-0.05,0.08-0.11,0.18-0.15,0.25c-0.37,0.7-0.73,1.36-1.09,2.05
		C359.33,394.88,355.72,401.58,352.05,408.42 M329.12,399.55c-2.25-0.69-4.39-1.51-6.44-2.43c-7.79-3.58-14.16-8.65-19.13-15.15
		c-4.86-6.36-8.05-13.42-9.58-21.14c-1.51-7.54-1.37-15.14,0.29-22.79c2.13-10.21,6.74-19.26,13.74-27.24
		c6.83-7.79,15.11-13.73,24.87-17.9c9.65-4.13,19.92-6.17,30.93-6.09c9.64,0.15,18.51,2.54,26.71,7.15
		c0.04,0.03,0.08,0.06,0.12,0.09c-2.25,3.86-3.96,6.8-6.27,10.78c-11.59-8.22-30.83-7.29-43.53-1.84
		c-6.93,2.95-12.95,7.34-18.09,13.22c-5.23,5.97-8.74,13.33-10.49,22.14c-1.68,8.31-1.32,16.05,1.18,23.17
		c2.56,7.27,6.96,13.11,13.24,17.44c3.43,2.36,7.6,3.36,11.78,4.54C335.5,388.51,332.15,394.38,329.12,399.55z"/>
	<path class="st6" d="M662.51,665.48c1.97-0.12,3.6-0.46,4.91-1.02c1.3-0.56,2.36-1.34,3.16-2.35c0.8-1,1.37-2.21,1.72-3.61
		c0.34-1.4,0.51-2.99,0.51-4.75c0-1.77-0.17-3.35-0.51-4.75c-0.34-1.4-0.9-2.6-1.69-3.58c-0.78-0.98-1.84-1.77-3.16-2.35
		c-1.32-0.58-2.97-0.91-4.94-0.99V665.48z M656.61,670.59c-2.53-0.12-4.8-0.51-6.83-1.17c-2.03-0.66-3.76-1.66-5.21-3.01
		c-1.44-1.34-2.55-3.05-3.31-5.12c-0.76-2.07-1.14-4.58-1.14-7.55c0-2.93,0.38-5.44,1.14-7.52c0.76-2.09,1.87-3.79,3.31-5.12
		c1.44-1.32,3.18-2.32,5.21-2.98c2.03-0.66,4.3-1.05,6.83-1.17v-4.75h4.45c0.96,0,1.44,0.46,1.44,1.38v3.37
		c2.53,0.12,4.8,0.51,6.83,1.17c2.03,0.66,3.76,1.66,5.21,3.01c1.44,1.34,2.55,3.05,3.31,5.12c0.76,2.07,1.14,4.56,1.14,7.49
		c0,2.97-0.38,5.49-1.14,7.55c-0.76,2.07-1.87,3.77-3.31,5.12c-1.44,1.34-3.18,2.35-5.21,3.01c-2.03,0.66-4.3,1.05-6.83,1.17v5.42
		h-4.45c-0.96,0-1.44-0.46-1.44-1.38V670.59z M656.61,642.06c-2.01,0.08-3.67,0.4-5,0.96c-1.32,0.56-2.38,1.34-3.16,2.35
		c-0.78,1-1.33,2.21-1.65,3.61c-0.32,1.4-0.48,2.99-0.48,4.75c0,1.77,0.16,3.35,0.48,4.75c0.32,1.4,0.87,2.61,1.65,3.61
		c0.78,1,1.84,1.79,3.16,2.35c1.32,0.56,2.99,0.9,5,1.02V642.06z M606.72,655.18c1.04,0.2,2.09,0.37,3.13,0.51
		c1.04,0.14,2.09,0.21,3.13,0.21c1.28,0,2.41-0.13,3.37-0.39c0.96-0.26,1.76-0.72,2.38-1.38c0.62-0.66,1.09-1.55,1.41-2.68
		c0.32-1.12,0.48-2.55,0.48-4.27c0-1.85-0.17-3.33-0.51-4.45c-0.34-1.12-0.85-2-1.53-2.62c-0.68-0.62-1.51-1.04-2.5-1.26
		c-0.98-0.22-2.1-0.33-3.34-0.33c-1.2,0-2.34,0.04-3.4,0.12c-1.06,0.08-1.94,0.18-2.62,0.3V655.18z M601.9,675.71
		c-0.96,0-1.44-0.46-1.44-1.38v-39.6c1.77-0.32,3.75-0.59,5.96-0.81c2.21-0.22,4.27-0.33,6.2-0.33c4.86,0,8.43,1.04,10.71,3.13
		c2.29,2.09,3.43,5.58,3.43,10.47c0,2.49-0.31,4.59-0.93,6.32c-0.62,1.73-1.49,3.13-2.62,4.21c-1.12,1.08-2.5,1.88-4.12,2.38
		c-1.63,0.5-3.42,0.75-5.39,0.75c-1.04,0-2.15-0.07-3.31-0.21c-1.16-0.14-2.39-0.35-3.67-0.63v15.71H601.9z M584.93,672.22
		c0,1.4-0.32,2.4-0.96,2.98c-0.64,0.58-1.66,0.87-3.07,0.87c-1.44,0-2.48-0.29-3.1-0.87c-0.62-0.58-0.93-1.57-0.93-2.98
		c0-1.36,0.32-2.34,0.96-2.92c0.64-0.58,1.66-0.87,3.07-0.87c1.4,0,2.43,0.29,3.07,0.87C584.61,669.88,584.93,670.85,584.93,672.22z
		 M561.34,675.71h-4.87c-0.96,0-1.44-0.46-1.44-1.38v-35.15h-12.04c-0.04,1.44-0.08,2.98-0.12,4.6c-0.04,1.63-0.1,3.25-0.18,4.88
		c-0.08,1.62-0.16,3.24-0.24,4.84c-0.08,1.6-0.18,3.11-0.3,4.51c-0.48,6.22-1.45,10.78-2.92,13.69c-1.46,2.91-3.6,4.36-6.41,4.36
		c-1.08,0-1.97-0.16-2.65-0.48c-0.36-0.2-0.62-0.42-0.78-0.66c-0.16-0.24-0.24-0.64-0.24-1.2v-2.77c0.32,0.04,0.61,0.06,0.87,0.06
		c0.26,0,0.55,0,0.87,0c0.64,0,1.24-0.15,1.81-0.45c0.56-0.3,1.07-0.96,1.53-1.99c0.46-1.02,0.87-2.54,1.23-4.54
		c0.36-2.01,0.64-4.73,0.84-8.19c0.12-1.64,0.21-3.4,0.27-5.27c0.06-1.87,0.12-3.75,0.18-5.66c0.06-1.91,0.11-3.79,0.15-5.66
		c0.04-1.87,0.08-3.62,0.12-5.27h22.87c0.96,0,1.44,0.46,1.44,1.38V675.71z M516.98,654.88c0,4.45-0.36,8.08-1.08,10.89
		c-0.72,2.81-1.75,5-3.07,6.56c-1.32,1.57-2.92,2.64-4.78,3.22c-1.87,0.58-3.92,0.87-6.17,0.87c-2.25,0-4.29-0.29-6.14-0.87
		c-1.85-0.58-3.43-1.66-4.75-3.22c-1.32-1.56-2.35-3.75-3.07-6.56c-0.72-2.81-1.08-6.44-1.08-10.89c0-4.45,0.36-8.09,1.08-10.89
		c0.72-2.81,1.75-5,3.07-6.56c1.32-1.56,2.91-2.64,4.75-3.22c1.85-0.58,3.89-0.87,6.14-0.87c2.25,0,4.3,0.29,6.17,0.87
		c1.87,0.58,3.46,1.65,4.78,3.22c1.32,1.56,2.35,3.75,3.07,6.56C516.62,646.8,516.98,650.43,516.98,654.88z M493.27,654.88
		c0,3.09,0.13,5.67,0.39,7.73c0.26,2.07,0.72,3.73,1.38,5c0.66,1.26,1.54,2.17,2.65,2.71c1.1,0.54,2.5,0.81,4.18,0.81
		c1.69,0,3.08-0.27,4.18-0.81c1.1-0.54,1.99-1.44,2.65-2.71c0.66-1.26,1.13-2.93,1.41-5c0.28-2.07,0.42-4.64,0.42-7.73
		c0-3.09-0.14-5.67-0.42-7.73c-0.28-2.07-0.75-3.73-1.41-5c-0.66-1.26-1.54-2.17-2.65-2.71c-1.1-0.54-2.5-0.81-4.18-0.81
		c-1.69,0-3.08,0.27-4.18,0.81c-1.1,0.54-1.99,1.44-2.65,2.71c-0.66,1.26-1.12,2.93-1.38,5
		C493.4,649.22,493.27,651.79,493.27,654.88z M472.99,636.47c-1.52,2.53-3.58,5.36-6.17,8.49c-2.59,3.13-5.59,6.18-9,9.15
		c1.44,1.2,2.95,2.63,4.51,4.27c1.56,1.64,3.09,3.41,4.57,5.3c1.48,1.89,2.92,3.85,4.3,5.9c1.38,2.05,2.62,4.09,3.7,6.14h-5.9
		c-0.64,0-1.11-0.17-1.41-0.51c-0.3-0.34-0.55-0.71-0.75-1.11c-2.17-3.33-4.49-6.51-6.98-9.54c-2.49-3.03-4.81-5.57-6.98-7.61v18.78
		h-4.87c-0.96,0-1.44-0.46-1.44-1.38V634h4.88c0.96,0,1.44,0.46,1.44,1.38v16.55c1.24-1.16,2.52-2.43,3.82-3.79
		c1.3-1.36,2.59-2.82,3.85-4.36c1.26-1.54,2.49-3.14,3.67-4.78c1.18-1.64,2.3-3.31,3.34-4.99h4.57c0.84,0,1.26,0.38,1.26,1.14
		C473.41,635.46,473.27,635.9,472.99,636.47z M385.54,634h4.82c0.96,0,1.44,0.46,1.44,1.38v34.91h13V634h4.81
		c0.96,0,1.44,0.46,1.44,1.38v34.91h13V634h4.82c0.96,0,1.44,0.46,1.44,1.38v40.32h-43.33c-0.96,0-1.44-0.46-1.44-1.38V634z
		 M370.13,654.88c0,4.45-0.36,8.08-1.08,10.89c-0.72,2.81-1.75,5-3.07,6.56c-1.32,1.57-2.92,2.64-4.78,3.22
		c-1.87,0.58-3.92,0.87-6.17,0.87c-2.25,0-4.29-0.29-6.14-0.87c-1.85-0.58-3.43-1.66-4.75-3.22c-1.32-1.56-2.35-3.75-3.07-6.56
		c-0.72-2.81-1.08-6.44-1.08-10.89c0-4.45,0.36-8.09,1.08-10.89c0.72-2.81,1.75-5,3.07-6.56c1.32-1.56,2.91-2.64,4.75-3.22
		c1.85-0.58,3.89-0.87,6.14-0.87c2.25,0,4.3,0.29,6.17,0.87c1.87,0.58,3.46,1.65,4.78,3.22c1.32,1.56,2.35,3.75,3.07,6.56
		C369.77,646.8,370.13,650.43,370.13,654.88z M346.42,654.88c0,3.09,0.13,5.67,0.39,7.73c0.26,2.07,0.72,3.73,1.38,5
		c0.66,1.26,1.54,2.17,2.65,2.71c1.1,0.54,2.5,0.81,4.18,0.81c1.69,0,3.08-0.27,4.18-0.81c1.1-0.54,1.99-1.44,2.65-2.71
		c0.66-1.26,1.13-2.93,1.41-5c0.28-2.07,0.42-4.64,0.42-7.73c0-3.09-0.14-5.67-0.42-7.73c-0.28-2.07-0.75-3.73-1.41-5
		c-0.66-1.26-1.54-2.17-2.65-2.71c-1.1-0.54-2.5-0.81-4.18-0.81c-1.69,0-3.08,0.27-4.18,0.81c-1.1,0.54-1.99,1.44-2.65,2.71
		c-0.66,1.26-1.12,2.93-1.38,5C346.55,649.22,346.42,651.79,346.42,654.88z M309.83,639.3h-9.57c-0.96,0-1.44-0.46-1.44-1.38V634
		h26.96c0.44,0,0.79,0.12,1.05,0.36c0.26,0.24,0.39,0.58,0.39,1.02v3.91h-11.07v36.41h-4.87c-0.96,0-1.44-0.46-1.44-1.38V639.3z
		 M260.06,634.72c1.77-0.32,3.77-0.59,6.02-0.81c2.25-0.22,4.27-0.33,6.08-0.33c2.01,0,3.84,0.19,5.51,0.57
		c1.66,0.38,3.09,1,4.27,1.87c1.18,0.86,2.11,2.02,2.77,3.46c0.66,1.44,0.99,3.21,0.99,5.3c0,2.37-0.43,4.33-1.29,5.9
		c-0.86,1.56-2.22,2.75-4.06,3.55c2.41,0.88,4.08,2.2,5.03,3.94c0.94,1.75,1.41,3.82,1.41,6.23c0,2.17-0.33,3.98-0.99,5.45
		c-0.66,1.46-1.58,2.63-2.77,3.49c-1.18,0.86-2.58,1.47-4.18,1.84c-1.61,0.36-3.35,0.54-5.24,0.54h-12.1
		c-0.96,0-1.44-0.46-1.44-1.38V634.72z M266.2,651.93h6.68c1.12,0,2.11-0.09,2.95-0.27c0.84-0.18,1.56-0.52,2.14-1.02
		c0.58-0.5,1.01-1.18,1.29-2.05c0.28-0.86,0.42-1.98,0.42-3.34c0-1.36-0.15-2.48-0.45-3.34c-0.3-0.86-0.76-1.54-1.38-2.05
		c-0.62-0.5-1.41-0.85-2.38-1.05c-0.96-0.2-2.13-0.3-3.49-0.3c-1,0-2.05,0.04-3.13,0.12c-1.08,0.08-1.97,0.18-2.65,0.3V651.93z
		 M266.2,670.71h6.92c1.28,0,2.4-0.11,3.34-0.33c0.94-0.22,1.73-0.59,2.35-1.11c0.62-0.52,1.08-1.22,1.38-2.11
		c0.3-0.88,0.45-2.01,0.45-3.37c0-1.57-0.2-2.82-0.6-3.76c-0.4-0.94-1.01-1.66-1.84-2.14c-0.82-0.48-1.84-0.79-3.04-0.93
		c-1.2-0.14-2.61-0.21-4.21-0.21h-4.75V670.71z M231.23,639.17c-0.96,2.85-1.96,5.93-2.98,9.24c-1.02,3.31-2,6.89-2.92,10.74h11.86
		c-0.92-3.85-1.9-7.43-2.92-10.74C233.24,645.1,232.23,642.02,231.23,639.17z M239.77,674.32c-0.28-1.81-0.57-3.54-0.87-5.21
		c-0.3-1.67-0.61-3.34-0.93-5.03h-13.42c-0.4,1.93-0.76,3.87-1.08,5.84c-0.32,1.97-0.62,3.89-0.9,5.78h-4.63
		c-0.88,0-1.3-0.5-1.26-1.5c0.12-1.2,0.3-2.39,0.54-3.55c0.72-3.89,1.52-7.61,2.41-11.16c0.88-3.55,1.79-6.88,2.71-9.99
		c0.92-3.11,1.86-5.97,2.8-8.58c0.94-2.61,1.84-4.92,2.68-6.92h6.02c0.48,0,0.84,0.1,1.08,0.3c0.24,0.2,0.44,0.52,0.6,0.96
		c0.84,2.05,1.77,4.49,2.77,7.34c1,2.85,2,6.02,2.98,9.51c0.98,3.49,1.92,7.23,2.8,11.22c0.88,3.99,1.64,8.12,2.29,12.37h-5.12
		C240.38,675.71,239.9,675.25,239.77,674.32z M180.49,670.29c1.2,0.2,2.65,0.38,4.33,0.54c1.69,0.16,3.29,0.24,4.81,0.24
		c3.25,0,5.55-0.65,6.89-1.96c1.34-1.3,2.02-3.1,2.02-5.39c0-2.49-0.68-4.23-2.05-5.24c-1.36-1-3.39-1.5-6.08-1.5h-4.82
		c-0.96,0-1.44-0.46-1.44-1.38v-3.79h6.38c1.52,0,2.77-0.22,3.73-0.66c0.96-0.44,1.71-0.99,2.23-1.66c0.52-0.66,0.87-1.39,1.05-2.2
		c0.18-0.8,0.27-1.56,0.27-2.29c0-2.21-0.61-3.83-1.84-4.87c-1.22-1.04-3.22-1.57-5.99-1.57c-1.77,0-3.26,0.11-4.48,0.33
		c-1.22,0.22-2.22,0.33-2.98,0.33c-0.56,0-0.93-0.14-1.11-0.42c-0.18-0.28-0.27-0.62-0.27-1.02v-2.65c1.16-0.44,2.62-0.85,4.36-1.23
		c1.75-0.38,3.72-0.57,5.93-0.57c4.25,0,7.38,0.97,9.39,2.92c2.01,1.95,3.01,4.66,3.01,8.16c0,2.21-0.49,4.11-1.47,5.72
		c-0.98,1.6-2.46,2.87-4.42,3.79c2.41,0.84,4.13,2.13,5.18,3.85c1.04,1.73,1.56,3.79,1.56,6.2c0,4.05-1.18,7.13-3.55,9.24
		c-2.37,2.11-5.8,3.16-10.29,3.16c-0.48,0-1.12-0.03-1.93-0.09c-0.8-0.06-1.64-0.14-2.5-0.24c-0.86-0.1-1.71-0.22-2.53-0.36
		c-0.82-0.14-1.49-0.31-2.02-0.51c-0.56-0.2-0.93-0.45-1.11-0.75c-0.18-0.3-0.27-0.65-0.27-1.05V670.29z M152.03,671.13
		c1.6,0,2.95-0.27,4.03-0.81c1.08-0.54,1.95-1.44,2.59-2.71c0.64-1.26,1.1-2.93,1.38-5c0.28-2.07,0.42-4.64,0.42-7.73
		c0-3.09-0.13-5.67-0.39-7.73c-0.26-2.07-0.72-3.73-1.38-5c-0.66-1.26-1.53-2.17-2.62-2.71c-1.08-0.54-2.43-0.81-4.03-0.81
		c-1.65,0-3,0.27-4.06,0.81c-1.06,0.54-1.92,1.44-2.56,2.71c-0.64,1.26-1.09,2.93-1.35,5c-0.26,2.07-0.39,4.64-0.39,7.73
		c0,3.09,0.13,5.67,0.39,7.73c0.26,2.07,0.71,3.73,1.35,5c0.64,1.26,1.49,2.17,2.56,2.71C149.03,670.86,150.38,671.13,152.03,671.13
		z M122.66,634h4.87c0.44,0,0.79,0.12,1.05,0.36c0.26,0.24,0.39,0.58,0.39,1.02v16.31h8.31c0.16-3.77,0.64-6.84,1.44-9.21
		c0.8-2.37,1.85-4.23,3.13-5.6c1.28-1.36,2.79-2.3,4.51-2.8c1.73-0.5,3.61-0.75,5.66-0.75c2.21,0,4.22,0.29,6.05,0.87
		c1.83,0.58,3.39,1.65,4.69,3.22c1.3,1.56,2.32,3.75,3.04,6.56c0.72,2.81,1.08,6.44,1.08,10.89c0,4.45-0.36,8.08-1.08,10.89
		c-0.72,2.81-1.74,5-3.04,6.56c-1.3,1.57-2.87,2.64-4.69,3.22c-1.83,0.58-3.84,0.87-6.05,0.87c-2.09,0-4.01-0.26-5.78-0.78
		c-1.77-0.52-3.29-1.49-4.57-2.92c-1.28-1.42-2.32-3.4-3.1-5.93c-0.78-2.53-1.23-5.8-1.35-9.81h-8.24v18.72h-4.88
		c-0.96,0-1.44-0.46-1.44-1.38V634z M107.25,654.88c0,4.45-0.36,8.08-1.08,10.89c-0.72,2.81-1.75,5-3.07,6.56
		c-1.32,1.57-2.92,2.64-4.78,3.22c-1.87,0.58-3.92,0.87-6.17,0.87c-2.25,0-4.29-0.29-6.14-0.87c-1.85-0.58-3.43-1.66-4.75-3.22
		c-1.32-1.56-2.35-3.75-3.07-6.56c-0.72-2.81-1.08-6.44-1.08-10.89c0-4.45,0.36-8.09,1.08-10.89c0.72-2.81,1.75-5,3.07-6.56
		c1.32-1.56,2.91-2.64,4.75-3.22c1.85-0.58,3.89-0.87,6.14-0.87c2.25,0,4.3,0.29,6.17,0.87c1.87,0.58,3.46,1.65,4.78,3.22
		c1.32,1.56,2.35,3.75,3.07,6.56C106.89,646.8,107.25,650.43,107.25,654.88z M83.54,654.88c0,3.09,0.13,5.67,0.39,7.73
		c0.26,2.07,0.72,3.73,1.38,5c0.66,1.26,1.54,2.17,2.65,2.71c1.1,0.54,2.5,0.81,4.18,0.81c1.69,0,3.08-0.27,4.18-0.81
		c1.1-0.54,1.99-1.44,2.65-2.71c0.66-1.26,1.13-2.93,1.41-5c0.28-2.07,0.42-4.64,0.42-7.73c0-3.09-0.14-5.67-0.42-7.73
		c-0.28-2.07-0.75-3.73-1.41-5c-0.66-1.26-1.54-2.17-2.65-2.71c-1.1-0.54-2.5-0.81-4.18-0.81c-1.69,0-3.08,0.27-4.18,0.81
		c-1.1,0.54-1.99,1.44-2.65,2.71c-0.66,1.26-1.12,2.93-1.38,5C83.67,649.22,83.54,651.79,83.54,654.88z M54.29,633.4
		c1.4,0,2.86,0.11,4.36,0.33c1.5,0.22,2.68,0.51,3.52,0.87c0.48,0.2,0.81,0.46,0.99,0.78c0.18,0.32,0.27,0.74,0.27,1.26v2.83
		c-1.16-0.16-2.46-0.31-3.88-0.45c-1.42-0.14-2.9-0.21-4.42-0.21c-1.81,0-3.33,0.25-4.57,0.75c-1.24,0.5-2.25,1.35-3.01,2.56
		c-0.76,1.2-1.3,2.82-1.62,4.84c-0.32,2.03-0.48,4.56-0.48,7.61c0,3.37,0.2,6.12,0.6,8.25c0.4,2.13,0.99,3.78,1.78,4.97
		c0.78,1.18,1.78,2,2.98,2.44c1.2,0.44,2.63,0.66,4.27,0.66c1.69,0,3.15-0.1,4.39-0.3s2.19-0.3,2.83-0.3c1,0,1.5,0.48,1.5,1.44v2.95
		c-1.16,0.44-2.56,0.83-4.18,1.17c-1.62,0.34-3.5,0.51-5.63,0.51c-2.65,0-4.92-0.4-6.8-1.2c-1.89-0.8-3.44-2.08-4.66-3.82
		c-1.22-1.75-2.12-3.97-2.68-6.68c-0.56-2.71-0.84-5.97-0.84-9.78c0-3.85,0.28-7.14,0.84-9.87c0.56-2.73,1.45-4.96,2.68-6.68
		c1.22-1.73,2.8-2.98,4.72-3.76C49.17,633.79,51.52,633.4,54.29,633.4z"/>
	<path class="st6" d="M654.37,77.21c-0.37,0-0.68-0.08-0.91-0.25c-0.24-0.17-0.35-0.46-0.35-0.86c0-0.24,0.08-0.58,0.25-1.01
		c0.84-2.48,1.98-5.07,3.4-7.8c1.42-2.73,3.19-5.49,5.32-8.27c-0.81-1.11-1.66-2.35-2.54-3.72c-0.88-1.36-1.72-2.8-2.53-4.29
		c-0.81-1.51-1.56-3.02-2.26-4.53c-0.69-1.52-1.24-2.98-1.65-4.4h4.71c0.37,0,0.65,0.1,0.84,0.31c0.19,0.2,0.33,0.49,0.43,0.86
		c0.34,1.05,0.74,2.16,1.23,3.33c0.49,1.17,1.02,2.34,1.6,3.52c0.57,1.17,1.17,2.29,1.77,3.38c0.61,1.08,1.2,2.05,1.78,2.9
		c0.61-0.91,1.23-1.95,1.89-3.1c0.66-1.16,1.28-2.36,1.89-3.61c0.61-1.26,1.17-2.53,1.66-3.85c0.51-1.3,0.91-2.55,1.22-3.74h3.84
		c0.34,0,0.64,0.08,0.9,0.23c0.25,0.15,0.38,0.45,0.38,0.89c0,0.17-0.03,0.35-0.1,0.56c-0.07,0.2-0.14,0.42-0.2,0.66
		c-0.41,1.15-0.93,2.37-1.57,3.66c-0.64,1.29-1.34,2.59-2.09,3.9c-0.74,1.3-1.52,2.58-2.33,3.81c-0.81,1.24-1.59,2.38-2.33,3.44
		c2.43,3.1,4.41,6.23,5.94,9.38c1.52,3.15,2.67,6.02,3.45,8.62h-4.72c-0.4,0-0.7-0.12-0.89-0.35c-0.19-0.24-0.35-0.57-0.48-1.01
		c-0.64-1.99-1.49-4.18-2.53-6.58c-1.05-2.4-2.42-4.8-4.1-7.19c-1.8,2.56-3.24,5.17-4.34,7.83c-1.11,2.65-2.01,5.09-2.72,7.32
		H654.37z M635.44,42.08h4.11c0.81,0,1.22,0.39,1.22,1.17v33.97h-4.11c-0.81,0-1.22-0.39-1.22-1.17V42.08z M618.41,73.01
		c2.16,0,3.79-0.46,4.89-1.39c1.1-0.93,1.65-2.64,1.65-5.15c0-2.4-0.55-4.06-1.65-4.97c-1.1-0.91-2.78-1.37-5.04-1.37h-4.77v12.88
		H618.41z M608.27,42.08h4.01c0.81,0,1.22,0.39,1.22,1.17v12.62h4.92c1.72,0,3.3,0.18,4.72,0.53c1.42,0.35,2.65,0.94,3.7,1.75
		c1.05,0.81,1.86,1.89,2.43,3.25c0.57,1.35,0.86,3.01,0.86,4.97c0,2.03-0.28,3.73-0.84,5.12c-0.56,1.39-1.34,2.5-2.33,3.35
		c-1,0.85-2.19,1.45-3.57,1.83c-1.39,0.37-2.91,0.56-4.56,0.56h-9.33c-0.81,0-1.22-0.39-1.22-1.17V42.08z M592.99,42.08
		c0.81,0,1.22,0.39,1.22,1.17v33.97h-4.11c-0.37,0-0.67-0.1-0.89-0.3c-0.22-0.2-0.33-0.49-0.33-0.86v-14.6h-13.03v15.77h-4.11
		c-0.81,0-1.22-0.39-1.22-1.17V42.08h4.11c0.37,0,0.67,0.1,0.89,0.31c0.22,0.2,0.33,0.49,0.33,0.86v13.74h13.03V42.08H592.99z
		 M535.32,42.69c1.49-0.27,3.18-0.5,5.07-0.68c1.89-0.19,3.6-0.28,5.12-0.28c1.69,0,3.24,0.16,4.64,0.48c1.4,0.32,2.6,0.85,3.6,1.57
		c1,0.73,1.77,1.7,2.33,2.91c0.56,1.22,0.84,2.71,0.84,4.46c0,1.99-0.36,3.65-1.09,4.97c-0.73,1.32-1.87,2.32-3.42,2.99
		c2.03,0.74,3.44,1.85,4.23,3.32c0.79,1.47,1.19,3.22,1.19,5.25c0,1.83-0.28,3.35-0.84,4.59c-0.56,1.23-1.34,2.21-2.33,2.94
		c-1,0.73-2.17,1.24-3.52,1.55c-1.35,0.3-2.82,0.46-4.41,0.46h-10.19c-0.81,0-1.22-0.39-1.22-1.17V42.69z M540.49,57.19h5.63
		c0.95,0,1.77-0.08,2.48-0.23c0.71-0.15,1.31-0.44,1.8-0.86c0.49-0.42,0.85-1,1.09-1.72c0.24-0.73,0.35-1.66,0.35-2.81
		c0-1.15-0.13-2.09-0.38-2.81c-0.25-0.73-0.64-1.3-1.17-1.72c-0.52-0.42-1.19-0.72-2-0.89c-0.81-0.17-1.79-0.25-2.94-0.25
		c-0.84,0-1.72,0.03-2.64,0.1c-0.91,0.07-1.66,0.15-2.23,0.25V57.19z M540.49,73.01h5.83c1.08,0,2.02-0.09,2.81-0.28
		c0.79-0.19,1.45-0.5,1.98-0.94c0.52-0.44,0.91-1.03,1.17-1.78c0.25-0.74,0.38-1.69,0.38-2.84c0-1.32-0.17-2.38-0.51-3.17
		c-0.34-0.79-0.85-1.39-1.55-1.8c-0.69-0.41-1.55-0.67-2.56-0.79c-1.01-0.12-2.2-0.18-3.55-0.18h-4.01V73.01z M510.68,46.44
		c-0.8,2.4-1.64,4.99-2.49,7.78c-0.86,2.79-1.68,5.81-2.45,9.05h9.99c-0.78-3.25-1.61-6.26-2.47-9.05
		C512.39,51.43,511.54,48.84,510.68,46.44z M517.91,76.05c-0.24-1.52-0.49-2.98-0.74-4.39c-0.25-1.4-0.52-2.81-0.79-4.23h-11.32
		c-0.35,1.62-0.66,3.26-0.93,4.92c-0.28,1.66-0.53,3.28-0.78,4.87h-3.9c-0.74,0-1.1-0.42-1.07-1.27c0.1-1.01,0.25-2.01,0.46-2.99
		c0.62-3.28,1.29-6.41,2.04-9.41c0.75-2.99,1.51-5.8,2.29-8.42c0.79-2.62,1.57-5.03,2.37-7.22c0.8-2.2,1.56-4.14,2.26-5.83h5.07
		c0.41,0,0.71,0.08,0.91,0.25c0.2,0.17,0.37,0.44,0.51,0.81c0.71,1.72,1.49,3.79,2.33,6.19c0.85,2.4,1.69,5.07,2.52,8.01
		c0.83,2.94,1.61,6.09,2.37,9.46c0.74,3.36,1.39,6.84,1.93,10.42h-4.31C518.42,77.21,518.01,76.83,517.91,76.05z M470.69,59.92
		c0.88,0.17,1.76,0.31,2.64,0.43c0.88,0.12,1.76,0.18,2.64,0.18c1.08,0,2.03-0.11,2.84-0.33c0.81-0.22,1.48-0.61,2-1.17
		c0.52-0.56,0.92-1.31,1.19-2.26c0.27-0.95,0.41-2.15,0.41-3.6c0-1.55-0.14-2.8-0.43-3.75c-0.29-0.95-0.72-1.68-1.29-2.21
		c-0.57-0.52-1.28-0.88-2.1-1.07c-0.83-0.19-1.77-0.28-2.81-0.28c-1.01,0-1.97,0.03-2.86,0.1c-0.9,0.07-1.63,0.15-2.21,0.25V59.92z
		 M466.63,77.21c-0.81,0-1.22-0.39-1.22-1.17V42.69c1.49-0.27,3.16-0.5,5.02-0.68c1.86-0.19,3.6-0.28,5.22-0.28
		c4.09,0,7.1,0.88,9.02,2.64c1.93,1.76,2.89,4.7,2.89,8.82c0,2.1-0.26,3.87-0.79,5.32c-0.52,1.45-1.26,2.64-2.21,3.55
		c-0.95,0.91-2.1,1.58-3.47,2c-1.37,0.42-2.88,0.63-4.54,0.63c-0.88,0-1.81-0.06-2.79-0.18c-0.98-0.12-2.01-0.3-3.09-0.53v13.23
		H466.63z M413.29,42.08h3.85c0.81,0,1.22,0.39,1.22,1.17v24.69c0.51-0.98,1.16-2.21,1.95-3.7c0.79-1.49,1.66-3.07,2.59-4.74
		c0.93-1.67,1.89-3.4,2.89-5.17c1-1.77,1.94-3.45,2.84-5.02c0.9-1.57,1.71-2.99,2.43-4.26c0.73-1.27,1.29-2.26,1.7-2.97h3.85
		c0.81,0,1.22,0.41,1.22,1.22v33.92h-3.85c-0.81,0-1.22-0.39-1.22-1.17V50.6c-0.37,0.61-0.92,1.56-1.65,2.86
		c-0.73,1.3-1.55,2.78-2.48,4.44c-0.93,1.66-1.92,3.43-2.97,5.32c-1.05,1.89-2.05,3.72-3.02,5.48c-0.96,1.76-1.85,3.39-2.66,4.89
		c-0.81,1.5-1.45,2.71-1.93,3.63h-3.55c-0.81,0-1.22-0.39-1.22-1.17V42.08z M392.69,72.65V46.54h-9.23
		c-0.03,1.15-0.08,2.51-0.13,4.08c-0.05,1.57-0.13,3.2-0.23,4.89c-0.1,1.69-0.21,3.35-0.33,4.99c-0.12,1.64-0.25,3.1-0.38,4.39
		c-0.17,1.69-0.46,3.17-0.89,4.44c-0.42,1.27-0.92,2.38-1.5,3.32H392.69z M370.89,72.65h3.35c0.71-0.68,1.36-1.8,1.95-3.37
		c0.59-1.57,0.99-3.69,1.19-6.36c0.1-1.42,0.22-3.03,0.35-4.84c0.13-1.81,0.25-3.65,0.35-5.53c0.1-1.88,0.19-3.73,0.28-5.55
		c0.08-1.83,0.14-3.47,0.18-4.92h18.1c0.78,0,1.17,0.39,1.17,1.17v29.41h2.64c0.81,0,1.22,0.39,1.22,1.17v10.85h-3.8
		c-0.81,0-1.22-0.39-1.22-1.17v-6.29H375.9v7.45h-3.8c-0.81,0-1.22-0.39-1.22-1.17V72.65z M359.1,42.08c0.78,0,1.17,0.39,1.17,1.17
		v3.19h-14.5v10.8h12.02c0.78,0,1.17,0.39,1.17,1.17v3.25h-13.18v11.2h13.89c0.37,0,0.67,0.1,0.89,0.3c0.22,0.2,0.33,0.49,0.33,0.86
		v3.19h-19.22c-0.81,0-1.22-0.39-1.22-1.17V42.08H359.1z M310.82,59.92c0.88,0.17,1.76,0.31,2.64,0.43
		c0.88,0.12,1.76,0.18,2.64,0.18c1.08,0,2.03-0.11,2.84-0.33c0.81-0.22,1.48-0.61,2-1.17c0.52-0.56,0.92-1.31,1.19-2.26
		c0.27-0.95,0.41-2.15,0.41-3.6c0-1.55-0.14-2.8-0.43-3.75c-0.29-0.95-0.72-1.68-1.29-2.21c-0.57-0.52-1.28-0.88-2.1-1.07
		c-0.83-0.19-1.77-0.28-2.81-0.28c-1.01,0-1.97,0.03-2.86,0.1c-0.9,0.07-1.63,0.15-2.21,0.25V59.92z M306.76,77.21
		c-0.81,0-1.22-0.39-1.22-1.17V42.69c1.49-0.27,3.16-0.5,5.02-0.68c1.86-0.19,3.6-0.28,5.22-0.28c4.09,0,7.1,0.88,9.02,2.64
		c1.93,1.76,2.89,4.7,2.89,8.82c0,2.1-0.26,3.87-0.79,5.32c-0.52,1.45-1.26,2.64-2.21,3.55c-0.95,0.91-2.1,1.58-3.47,2
		c-1.37,0.42-2.88,0.63-4.54,0.63c-0.88,0-1.81-0.06-2.79-0.18c-0.98-0.12-2.01-0.3-3.09-0.53v13.23H306.76z M285.24,41.57
		c1.18,0,2.41,0.09,3.68,0.28c1.27,0.19,2.26,0.43,2.97,0.74c0.41,0.17,0.68,0.39,0.84,0.66c0.15,0.27,0.23,0.62,0.23,1.06v2.38
		c-0.98-0.13-2.07-0.26-3.27-0.38c-1.2-0.12-2.44-0.18-3.73-0.18c-1.52,0-2.81,0.21-3.85,0.63c-1.05,0.42-1.89,1.14-2.53,2.16
		c-0.64,1.01-1.1,2.37-1.37,4.08c-0.27,1.71-0.41,3.84-0.41,6.41c0,2.84,0.17,5.15,0.51,6.95c0.34,1.79,0.84,3.19,1.5,4.18
		c0.66,1,1.5,1.68,2.51,2.05c1.01,0.37,2.21,0.56,3.6,0.56c1.42,0,2.65-0.08,3.7-0.25c1.05-0.17,1.84-0.25,2.38-0.25
		c0.85,0,1.27,0.41,1.27,1.22v2.48c-0.98,0.37-2.16,0.7-3.52,0.99c-1.37,0.29-2.95,0.43-4.74,0.43c-2.23,0-4.14-0.34-5.73-1.01
		c-1.59-0.68-2.9-1.75-3.93-3.22c-1.03-1.47-1.78-3.35-2.26-5.63c-0.47-2.28-0.71-5.03-0.71-8.24c0-3.25,0.24-6.02,0.71-8.31
		c0.47-2.3,1.23-4.17,2.26-5.63c1.03-1.45,2.36-2.51,3.98-3.17C280.93,41.9,282.91,41.57,285.24,41.57z M245.24,42.08
		c0.78,0,1.17,0.39,1.17,1.17v3.19h-14.5v10.8h12.02c0.78,0,1.17,0.39,1.17,1.17v3.25h-13.18v11.2h13.89c0.37,0,0.67,0.1,0.89,0.3
		c0.22,0.2,0.33,0.49,0.33,0.86v3.19H227.8c-0.81,0-1.22-0.39-1.22-1.17V42.08H245.24z M207.19,42.08h4.11
		c0.81,0,1.22,0.39,1.22,1.17v33.97h-4.11c-0.81,0-1.22-0.39-1.22-1.17V42.08z M190.16,73.01c2.16,0,3.79-0.46,4.89-1.39
		c1.1-0.93,1.65-2.64,1.65-5.15c0-2.4-0.55-4.06-1.65-4.97c-1.1-0.91-2.78-1.37-5.04-1.37h-4.77v12.88H190.16z M180.02,42.08h4.01
		c0.81,0,1.22,0.39,1.22,1.17v12.62h4.92c1.72,0,3.3,0.18,4.72,0.53c1.42,0.35,2.65,0.94,3.7,1.75c1.05,0.81,1.86,1.89,2.43,3.25
		c0.57,1.35,0.86,3.01,0.86,4.97c0,2.03-0.28,3.73-0.84,5.12c-0.56,1.39-1.33,2.5-2.33,3.35c-1,0.85-2.19,1.45-3.57,1.83
		c-1.39,0.37-2.91,0.56-4.56,0.56h-9.33c-0.81,0-1.22-0.39-1.22-1.17V42.08z M144.81,42.69c1.49-0.27,3.18-0.5,5.07-0.68
		c1.89-0.19,3.6-0.28,5.12-0.28c1.69,0,3.24,0.16,4.64,0.48c1.4,0.32,2.6,0.85,3.6,1.57c1,0.73,1.77,1.7,2.33,2.91
		c0.56,1.22,0.84,2.71,0.84,4.46c0,1.99-0.36,3.65-1.09,4.97c-0.73,1.32-1.87,2.32-3.42,2.99c2.03,0.74,3.44,1.85,4.23,3.32
		c0.79,1.47,1.19,3.22,1.19,5.25c0,1.83-0.28,3.35-0.84,4.59c-0.56,1.23-1.34,2.21-2.33,2.94c-1,0.73-2.17,1.24-3.52,1.55
		c-1.35,0.3-2.82,0.46-4.41,0.46h-10.19c-0.81,0-1.22-0.39-1.22-1.17V42.69z M149.98,57.19h5.63c0.95,0,1.77-0.08,2.48-0.23
		c0.71-0.15,1.31-0.44,1.8-0.86c0.49-0.42,0.85-1,1.09-1.72c0.24-0.73,0.35-1.66,0.35-2.81c0-1.15-0.13-2.09-0.38-2.81
		c-0.25-0.73-0.64-1.3-1.17-1.72c-0.52-0.42-1.19-0.72-2-0.89c-0.81-0.17-1.79-0.25-2.94-0.25c-0.85,0-1.72,0.03-2.64,0.1
		c-0.91,0.07-1.66,0.15-2.23,0.25V57.19z M149.98,73.01h5.83c1.08,0,2.02-0.09,2.81-0.28c0.79-0.19,1.45-0.5,1.98-0.94
		c0.52-0.44,0.91-1.03,1.17-1.78c0.25-0.74,0.38-1.69,0.38-2.84c0-1.32-0.17-2.38-0.51-3.17c-0.34-0.79-0.85-1.39-1.55-1.8
		c-0.69-0.41-1.55-0.67-2.56-0.79c-1.01-0.12-2.2-0.18-3.55-0.18h-4.01V73.01z M115.18,59.92c0.88,0.17,1.76,0.31,2.64,0.43
		c0.88,0.12,1.76,0.18,2.64,0.18c1.08,0,2.03-0.11,2.84-0.33c0.81-0.22,1.48-0.61,2-1.17c0.52-0.56,0.92-1.31,1.19-2.26
		c0.27-0.95,0.41-2.15,0.41-3.6c0-1.55-0.14-2.8-0.43-3.75c-0.29-0.95-0.72-1.68-1.29-2.21c-0.57-0.52-1.28-0.88-2.1-1.07
		c-0.83-0.19-1.77-0.28-2.81-0.28c-1.01,0-1.97,0.03-2.86,0.1c-0.9,0.07-1.63,0.15-2.2,0.25V59.92z M111.13,77.21
		c-0.81,0-1.22-0.39-1.22-1.17V42.69c1.49-0.27,3.16-0.5,5.02-0.68c1.86-0.19,3.6-0.28,5.22-0.28c4.09,0,7.1,0.88,9.02,2.64
		c1.93,1.76,2.89,4.7,2.89,8.82c0,2.1-0.26,3.87-0.79,5.32c-0.52,1.45-1.26,2.64-2.21,3.55c-0.95,0.91-2.1,1.58-3.47,2
		c-1.37,0.42-2.88,0.63-4.54,0.63c-0.88,0-1.81-0.06-2.79-0.18c-0.98-0.12-2.01-0.3-3.09-0.53v13.23H111.13z M95.59,42.08
		c0.78,0,1.17,0.39,1.17,1.17v3.19h-14.5v10.8h12.02c0.78,0,1.17,0.39,1.17,1.17v3.25H82.26v11.2h13.89c0.37,0,0.67,0.1,0.89,0.3
		c0.22,0.2,0.33,0.49,0.33,0.86v3.19H78.15c-0.81,0-1.22-0.39-1.22-1.17V42.08H95.59z M62.87,77.21h-4.16
		c-0.78,0-1.17-0.39-1.17-1.17V46.54H44.67v30.68h-4.11c-0.81,0-1.22-0.39-1.22-1.17V42.08h22.31c0.37,0,0.67,0.1,0.89,0.31
		c0.22,0.2,0.33,0.49,0.33,0.86V77.21z"/>
	<path class="st3" d="M633.08,564.69h-2.59v-4.9h2.59c3.17,0,3.17,1.81,3.17,2.4C636.25,562.81,636.25,564.69,633.08,564.69
		 M639.74,562.19c0-3.63-2.55-5.89-6.66-5.89H627v16.46h3.49v-4.59h2.59c0.15,0,0.31,0,0.48-0.01l3.36,4.6h4.32l-4.09-5.61
		C638.82,566.11,639.74,564.35,639.74,562.19z M633.19,577.57c-7.19,0-13.05-5.85-13.05-13.05c0-7.19,5.85-13.05,13.05-13.05
		c7.19,0,13.05,5.85,13.05,13.05C646.24,571.72,640.39,577.57,633.19,577.57z M633.19,546.53c-9.93,0-18,8.07-18,18
		c0,9.93,8.08,18,18,18c9.93,0,18-8.08,18-18C651.2,554.6,643.12,546.53,633.19,546.53z"/>
</g>
</svg>
